HIERARCHY
ROOT Hips
{
	OFFSET -0.179506 -22.333345 2.821913
	CHANNELS 6 Xposition Yposition Zposition Zrotation Yrotation Xrotation 
	JOINT LeftUpLeg
	{
		OFFSET 6.951974 -9.140623 -0.681533
		CHANNELS 3 Zrotation Yrotation Xrotation
		JOINT LeftLeg
		{
			OFFSET 3.427654 -37.519855 -0.449580
			CHANNELS 3 Zrotation Yrotation Xrotation
			JOINT LeftFoot
			{
				OFFSET -1.359570 -39.796059 -4.369333
				CHANNELS 3 Zrotation Yrotation Xrotation
				JOINT LeftToe
				{
					OFFSET 2.635814 -5.579078 11.928840
					CHANNELS 3 Zrotation Yrotation Xrotation
					End Site
					{
						OFFSET 0.000000 0.000000 0.000000
					}
				}
			}
		}
	}
	JOINT RightUpLeg
	{
		OFFSET -6.767048 -9.052170 -0.431982
		CHANNELS 3 Zrotation Yrotation Xrotation
		JOINT RightLeg
		{
			OFFSET -3.829005 -38.256897 -0.885003
			CHANNELS 3 Zrotation Yrotation Xrotation
			JOINT RightFoot
			{
				OFFSET 1.577377 -39.841461 -4.231180
				CHANNELS 3 Zrotation Yrotation Xrotation
				JOINT RightToe
				{
					OFFSET -2.537174 -4.814398 12.334795
					CHANNELS 3 Zrotation Yrotation Xrotation
					End Site
					{
						OFFSET 0.000000 0.000000 0.000000
					}
				}
			}
		}
	}
	JOINT Spine
	{
		OFFSET -0.253288 10.896323 -2.669631
		CHANNELS 3 Zrotation Yrotation Xrotation
		JOINT Spine1
		{
			OFFSET 0.548704 13.518043 0.109247
			CHANNELS 3 Zrotation Yrotation Xrotation
			JOINT Spine2
			{
				OFFSET 0.145701 5.292222 2.542457
				CHANNELS 3 Zrotation Yrotation Xrotation
				JOINT Neck
				{
					OFFSET -0.277840 21.387037 -4.285703
					CHANNELS 3 Zrotation Yrotation Xrotation
					JOINT Head
					{
						OFFSET 0.515184 6.496960 5.134897
						CHANNELS 3 Zrotation Yrotation Xrotation
						End Site
						{
							OFFSET 0.000000 0.000000 0.000000
						}
					}
				}
				JOINT LeftShoulder
				{
					OFFSET 7.884473 12.174932 -3.408961
					CHANNELS 3 Zrotation Yrotation Xrotation
					JOINT LeftArm
					{
						OFFSET 9.097692 3.046888 -0.886815
						CHANNELS 3 Zrotation Yrotation Xrotation
						JOINT LeftForeArm
						{
							OFFSET 25.961220 -1.277207 -2.745643
							CHANNELS 3 Zrotation Yrotation Xrotation
							JOINT LeftHand
							{
								OFFSET 24.923361 0.898606 -0.117091
								CHANNELS 3 Zrotation Yrotation Xrotation
								End Site
								{
									OFFSET 0.000000 0.000000 0.000000
								}
							}
						}
					}
				}
				JOINT RightShoulder
				{
					OFFSET -8.175920 11.883285 -3.861528
					CHANNELS 3 Zrotation Yrotation Xrotation
					JOINT RightArm
					{
						OFFSET -9.601238 3.255117 -0.914307
						CHANNELS 3 Zrotation Yrotation Xrotation
						JOINT RightForeArm
						{
							OFFSET -25.374195 -1.332924 -2.140099
							CHANNELS 3 Zrotation Yrotation Xrotation
							JOINT RightHand
							{
								OFFSET -25.529810 0.777228 -0.555919
								CHANNELS 3 Zrotation Yrotation Xrotation
								End Site
								{
									OFFSET 0.000000 0.000000 0.000000
								}
							}
						}
					}
				}
			}
		}
	}
}
MOTION
Frames: 16
Frame Time: 0.033333
-15.270826 -6.459347 92.219994 132.239950 -4.534022 85.670461 -0.886575 -6.170291 -23.465590 -1.347566 -3.637390 5.627401 -10.013784 2.853774 -0.190137 nan nan nan 2.815775 -1.139643 24.436158 -1.976674 20.297622 -4.730893 4.217043 11.113832 -4.417118 nan nan nan 3.242177 11.011438 11.972642 -1.303430 1.147164 3.086608 -0.559230 5.420202 1.637925 1.257976 -3.427627 -3.715728 4.954970 -9.299453 -3.960934 -20.452460 13.180354 -0.957194 -65.386315 10.661574 8.731236 4.709915 -23.348565 -3.974525 -1.154260 -12.470028 -33.916569 16.236837 1.247831 -0.977866 54.182323 18.244053 13.675028 -3.979598 45.775621 -1.486801 5.029828 13.814443 -20.758305 
-14.676256 -5.816208 92.048439 131.835595 -4.522406 85.597676 -1.033264 -6.413244 -23.397036 -1.687500 -3.472809 6.250528 -10.343276 2.692668 -0.337199 nan nan nan 2.622326 -1.196605 25.173166 -1.984948 20.361085 -4.781173 4.424110 11.367998 -4.353547 nan nan nan 3.204984 11.197026 11.721688 -1.198533 1.131986 3.398891 -0.532013 5.504665 1.504149 1.284780 -3.453203 -3.670469 5.026102 -9.506986 -4.039632 -20.650886 13.082160 -1.099130 -65.481286 10.587141 8.492902 5.146482 -23.245511 -4.339155 -2.176251 -12.645360 -33.630936 16.393631 1.107418 -0.990559 54.646406 17.737222 13.528900 -5.040391 45.464938 -1.994510 6.174697 13.628195 -20.016393 
-14.109426 -5.154338 91.894852 131.499801 -4.611302 85.742804 -1.249839 -6.878277 -23.635735 -1.863846 -3.488569 7.062778 -10.431547 2.329418 -0.028172 nan nan nan 2.317911 -1.124008 25.596554 -1.862178 20.292218 -4.695325 4.521113 11.624392 -4.347787 nan nan nan 3.076037 11.392063 11.334306 -1.081712 1.120764 3.662626 -0.648012 5.499894 1.241822 1.477037 -3.464609 -3.470356 5.117331 -9.697096 -4.157321 -20.871721 13.171897 -1.150769 -65.552579 10.383266 8.258437 5.767728 -23.121833 -4.755367 -2.998259 -12.857926 -33.123463 16.609904 0.745304 -1.054906 55.330504 17.249501 13.551825 -6.081056 44.893995 -1.830949 7.081219 13.548646 -19.813458 
-13.506440 -4.478327 91.722771 131.098390 -4.832004 85.940888 -1.614770 -7.558162 -23.799153 -1.759267 -4.097800 7.769429 -9.965745 1.685905 0.729050 nan nan nan 1.838811 -1.045856 25.948435 -1.765448 20.502616 -4.627841 4.941695 11.838204 -4.074637 nan nan nan 2.830309 11.605299 10.900843 -0.987783 1.152546 3.880731 -0.799994 5.510745 0.990103 1.559661 -3.653571 -3.211997 5.362335 -9.861768 -4.365603 -20.919136 13.527840 -1.116678 -65.541367 9.984237 8.406370 5.969503 -23.066564 -5.194304 -2.593841 -12.779940 -32.685331 16.959132 0.370872 -0.909532 55.143779 16.853867 13.754345 -5.789775 44.684173 -1.882715 6.397305 13.342806 -20.098813 
-12.871257 -3.830153 91.541901 130.654983 -5.004164 86.059390 -1.943483 -8.191417 -23.773334 -1.765070 -5.583135 8.321137 -9.927346 1.178408 1.743162 nan nan nan 1.428107 -1.087926 26.342229 -1.824930 20.842755 -4.599884 5.758365 12.086623 -3.664584 nan nan nan 2.668742 11.630976 10.848929 -1.003732 1.187656 3.643025 -0.810848 5.574482 0.926651 1.438978 -3.839355 -2.846453 5.545333 -9.931222 -4.951526 -21.137336 14.174225 -1.251183 -64.915959 9.741853 9.383098 5.003939 -23.507769 -5.065771 0.932956 -12.359085 -33.494432 17.018817 0.099485 -0.808020 52.595537 16.471399 14.550167 -0.179436 45.334659 2.301088 1.148462 13.075078 -23.919601 
-12.194753 -3.172459 91.398849 130.214682 -5.110032 86.083241 -2.238283 -8.715978 -23.583053 -1.783858 -6.875712 8.795684 -10.114940 0.639796 2.737025 nan nan nan 1.102818 -1.066245 26.718003 -1.744649 20.925779 -4.318768 6.439747 12.367069 -3.080960 nan nan nan 2.484786 11.744803 10.657768 -0.992915 1.150772 3.729877 -0.810772 5.730849 0.793039 1.424154 -4.130757 -2.646204 5.874605 -9.908005 -5.322349 -21.333255 14.348190 -1.259329 -64.801688 9.560928 9.432243 5.437228 -23.830869 -5.698423 0.293297 -12.372828 -33.399719 17.293405 -0.133799 -0.514190 53.556188 15.978873 14.394559 -2.498211 44.834846 -0.110829 2.624282 12.824315 -22.076586 
-11.527271 -2.516369 91.330818 129.839100 -5.143695 86.177828 -2.355874 -9.255467 -23.640886 -1.944819 -7.755717 9.491909 -10.232688 0.259676 3.438506 nan nan nan 0.900205 -0.998668 26.876417 -1.561540 20.931752 -3.741966 6.800231 12.644983 -2.549217 nan nan nan 2.341540 11.835683 10.299519 -0.926654 1.148620 3.928240 -0.871874 5.762012 0.574101 1.567867 -4.285576 -2.422050 6.123838 -9.952648 -5.516166 -21.679331 14.379946 -1.311073 -64.735669 9.389586 9.247595 6.190774 -23.900010 -6.509291 -0.304360 -12.504213 -33.168892 17.604528 -0.307638 -0.457211 54.408967 15.451170 14.251010 -4.154021 43.788651 -0.947817 4.073705 12.867028 -21.316087 
-10.889817 -1.813773 91.271133 129.434148 -5.289887 86.349574 -2.515130 -9.929478 -23.853980 -2.074138 -8.279218 10.144857 -10.111976 0.128920 4.658224 nan nan nan 0.526862 -0.896932 26.855671 -1.251720 20.870711 -2.951347 7.142130 12.964725 -2.128162 nan nan nan 2.255755 11.799840 9.841109 -1.019931 1.306925 4.052297 -0.996476 5.682112 0.453018 1.852384 -4.656355 -2.072964 6.266959 -9.707158 -5.685969 -22.007282 14.586767 -1.408547 -64.537305 9.160660 9.494472 6.757867 -24.043625 -7.305607 -0.282640 -12.571109 -33.200827 17.213829 -0.416025 -0.498760 54.902439 15.167066 14.696953 -3.265109 42.213644 -0.697684 4.438346 12.950756 -22.104307 
-10.133964 -1.164670 91.139885 128.883980 -5.350594 86.375231 -2.580111 -10.504995 -23.878398 -2.116445 -8.334083 10.769662 -10.041850 0.162471 5.864291 nan nan nan 0.422292 -0.690697 26.932813 -1.148317 20.866975 -2.165519 7.703272 13.186917 -1.591234 nan nan nan 2.088691 12.152480 9.701526 -0.830085 1.215438 3.823223 -1.139482 5.813001 0.476605 1.878438 -4.762678 -1.973609 6.703245 -9.838397 -5.657569 -21.432410 15.084865 -1.021453 -65.047812 8.052974 9.884466 6.939243 -23.467462 -7.351440 -0.317584 -12.793789 -33.900293 16.963286 -1.214338 -0.421743 57.182142 15.177449 15.408436 -6.316739 40.050014 -1.717980 5.285485 12.586185 -21.088008 
-9.433438 -0.544069 91.117020 128.258035 -5.471942 86.469497 -2.617005 -10.880922 -24.111017 -2.367877 -8.278434 12.090256 -9.768246 0.368351 5.635637 nan nan nan 0.201839 -0.496027 26.731744 -0.865127 21.137574 -0.941746 8.270208 13.287629 -0.968616 nan nan nan 1.814037 12.296459 9.480143 -0.678240 1.286470 3.886434 -1.199658 5.892111 0.318880 1.982710 -4.695767 -2.015168 6.864128 -9.895355 -5.704223 -21.851779 15.333635 -1.105594 -64.691241 7.567831 10.126748 6.989911 -23.551055 -7.822937 0.517773 -12.571003 -34.102814 17.574159 -1.686109 -0.276735 56.671993 14.656468 15.710402 -5.806646 39.847397 -0.647016 4.294624 12.121769 -21.832947 
-8.741849 0.120710 91.144775 127.536532 -5.725310 86.581298 -2.757255 -11.326660 -24.127102 -2.632822 -8.296734 13.015201 -9.539236 1.137761 5.704868 nan nan nan -0.164109 -0.297464 26.346436 -0.592524 21.477428 0.559109 8.778051 13.374015 -0.257607 nan nan nan 1.557547 12.140790 9.036337 -0.883780 1.597605 4.161370 -1.119102 5.867312 0.220195 2.150248 -4.879207 -1.858266 6.865319 -9.567099 -5.980961 -22.900004 14.974849 -1.560028 -63.762531 8.091939 10.084623 7.381206 -24.515644 -8.861091 1.246622 -12.353564 -33.830677 17.903006 -1.181421 -0.042787 54.638360 13.793405 15.248397 -2.044337 40.050716 1.204424 3.417165 11.832974 -23.285386 
-7.888310 0.690493 91.153900 126.934262 -5.867991 86.504848 -2.680810 -11.858076 -23.735524 -2.873705 -7.827909 13.469657 -9.013039 1.273799 6.258621 nan nan nan -0.114732 -0.061527 26.105536 -0.564383 21.419374 2.103572 8.985479 13.553271 0.336921 nan nan nan 1.128537 12.432066 8.626157 -0.754746 1.494198 4.320359 -1.196087 6.071247 0.291891 2.332156 -4.968162 -1.782051 7.377019 -9.688597 -6.080196 -21.842515 15.234518 -1.290624 -64.819310 6.945207 10.045629 7.975072 -23.518520 -8.809227 0.384061 -12.745086 -33.990865 17.447781 -1.649245 0.209919 58.456905 14.180245 15.389795 -7.571147 36.401985 -1.935487 5.702950 11.884117 -19.098454 
-7.034315 1.266339 91.193512 126.378304 -6.035506 86.384843 -2.703783 -12.207820 -23.306587 -3.219428 -7.430933 14.335743 -8.622077 1.671895 6.303408 nan nan nan -0.142504 0.127298 25.829173 -0.354764 21.581223 3.845959 9.559092 13.441180 1.057047 nan nan nan 0.693189 12.527429 8.353045 -0.613233 1.521812 4.410847 -1.120958 6.097190 0.351961 2.396274 -4.992669 -1.641540 7.638243 -9.731890 -6.452526 -21.694312 15.282114 -1.230654 -64.664759 6.584642 10.406513 7.799027 -23.926140 -8.748545 1.484979 -12.400555 -34.530056 17.669945 -1.939171 0.236189 58.554039 13.694269 15.603533 -7.446356 35.449245 -1.544250 4.416640 11.383219 -19.207082 
-6.178540 1.866124 91.244240 125.777800 -6.229966 86.299155 -2.730040 -12.362935 -22.923024 -3.541814 -6.630424 15.431568 -8.621628 2.200804 6.044632 nan nan nan -0.278653 0.305089 25.469556 -0.114943 21.580462 5.637284 10.611322 13.504362 2.093412 nan nan nan 0.198364 12.634927 8.139731 -0.502953 1.578085 4.362762 -1.034395 6.265062 0.292608 2.426364 -5.112472 -1.585835 7.958205 -9.890185 -6.573340 -21.449647 15.116059 -0.998434 -64.595615 6.288735 10.629101 7.706637 -24.294560 -8.846455 1.952445 -12.167155 -35.305658 17.594806 -2.326963 -0.053399 58.954218 12.820340 15.746992 -7.073443 34.385006 -0.348984 4.215169 10.797321 -19.772742 
-5.339583 2.511481 91.298454 125.129684 -6.459635 86.193881 -2.901985 -12.395447 -22.378478 -3.781388 -5.981672 16.184042 -8.454609 2.651815 5.738699 nan nan nan -0.459846 0.536589 25.042767 0.151593 21.631858 7.564577 11.450550 13.582695 3.082467 nan nan nan -0.276599 12.641304 7.914472 -0.379639 1.657391 4.319877 -0.988680 6.501545 0.277823 2.434752 -5.284343 -1.559475 8.207378 -10.046304 -6.553746 -21.171696 14.970044 -0.781575 -64.680362 5.915070 10.761580 7.617892 -24.466944 -8.716912 2.648838 -11.683628 -35.727235 17.453813 -2.674450 -0.274621 59.323008 11.886805 15.891217 -6.562841 33.668820 0.678355 3.479087 10.087815 -21.101120 
-4.542226 3.183829 91.367439 124.427602 -6.766813 86.174001 -3.197876 -12.419207 -21.768927 -4.105282 -5.769935 16.480256 -7.945808 3.027419 5.401534 nan nan nan -0.827247 0.799499 24.398664 0.628666 21.697778 9.726473 11.791897 13.531655 3.858635 nan nan nan -0.660056 12.597927 7.595568 -0.335142 1.853616 4.328911 -1.048636 6.570523 0.318709 2.548836 -5.370286 -1.311544 8.298872 -10.146797 -6.643870 -21.259186 14.644036 -0.669092 -64.503650 5.792198 10.761246 7.702752 -24.802307 -8.513773 3.632607 -11.340039 -35.677494 17.523366 -2.797838 -0.347781 59.161380 10.773453 15.896908 -5.560848 33.634343 1.970069 2.270385 9.500792 -23.609546 
